<?xml version="1.0" encoding="us-ascii" standalone="no"?><svg xmlns="http://www.w3.org/2000/svg" xmlns:xlink="http://www.w3.org/1999/xlink" contentStyleType="text/css" height="1275px" preserveAspectRatio="none" style="width:1211px;height:1275px;background:#FFFFFF;" version="1.1" viewBox="0 0 1211 1275" width="1211px" zoomAndPan="magnify"><defs/><g><rect fill="none" height="920.6099" style="stroke:#000000;stroke-width:1.5;" width="1138.5" x="66" y="224.1084"/><rect fill="none" height="63.3154" style="stroke:#000000;stroke-width:1.5;" width="362.5" x="556.5" y="360.2573"/><rect fill="none" height="700.1455" style="stroke:#000000;stroke-width:1.5;" width="1118.5" x="76" y="437.5728"/><rect fill="none" height="50.3154" style="stroke:#000000;stroke-width:1.5;" width="628" x="556.5" y="573.7217"/><rect fill="none" height="129.7886" style="stroke:#000000;stroke-width:1.5;" width="628" x="556.5" y="638.0371"/><rect fill="none" height="255.4194" style="stroke:#000000;stroke-width:1.5;" width="538" x="546.5" y="781.8257"/><rect fill="none" height="112.6309" style="stroke:#000000;stroke-width:1.5;" width="518" x="556.5" y="807.9834"/><line style="stroke:#000000;stroke-width:0.5;stroke-dasharray:5.0,5.0;" x1="22" x2="22" y1="83.4775" y2="1192.876"/><line style="stroke:#000000;stroke-width:0.5;stroke-dasharray:5.0,5.0;" x1="124" x2="124" y1="83.4775" y2="1192.876"/><line style="stroke:#000000;stroke-width:0.5;stroke-dasharray:5.0,5.0;" x1="343" x2="343" y1="83.4775" y2="1192.876"/><line style="stroke:#000000;stroke-width:0.5;stroke-dasharray:5.0,5.0;" x1="460.5" x2="460.5" y1="83.4775" y2="1192.876"/><line style="stroke:#000000;stroke-width:0.5;stroke-dasharray:5.0,5.0;" x1="654.5" x2="654.5" y1="83.4775" y2="1192.876"/><line style="stroke:#000000;stroke-width:0.5;stroke-dasharray:5.0,5.0;" x1="913.5" x2="913.5" y1="83.4775" y2="1192.876"/><line style="stroke:#000000;stroke-width:0.5;stroke-dasharray:5.0,5.0;" x1="1016.5" x2="1016.5" y1="83.4775" y2="1192.876"/><line style="stroke:#000000;stroke-width:0.5;stroke-dasharray:5.0,5.0;" x1="1124.5" x2="1124.5" y1="83.4775" y2="1192.876"/><text fill="#000000" font-family="Microsoft YaHei" font-size="14" lengthAdjust="spacing" textLength="28" x="5" y="79.8135">&#29992;&#25143;</text><ellipse cx="22" cy="13.5" fill="#E2E2F0" rx="8" ry="8" style="stroke:#181818;stroke-width:0.5;"/><path d="M22,21.5 L22,48.5 M9,29.5 L35,29.5 M22,48.5 L9,63.5 M22,48.5 L35,63.5 " fill="none" style="stroke:#181818;stroke-width:0.5;"/><text fill="#000000" font-family="Microsoft YaHei" font-size="14" lengthAdjust="spacing" textLength="28" x="5" y="1206.6895">&#29992;&#25143;</text><ellipse cx="22" cy="1218.8535" fill="#E2E2F0" rx="8" ry="8" style="stroke:#181818;stroke-width:0.5;"/><path d="M22,1226.8535 L22,1253.8535 M9,1234.8535 L35,1234.8535 M22,1253.8535 L9,1268.8535 M22,1253.8535 L35,1268.8535 " fill="none" style="stroke:#181818;stroke-width:0.5;"/><rect fill="#FFFFFF" height="32.4775" rx="2.5" ry="2.5" style="stroke:#000000;stroke-width:0.5;" width="76" x="86" y="50"/><text fill="#000000" font-family="Microsoft YaHei" font-size="14" lengthAdjust="spacing" textLength="62" x="93" y="71.8135">Vue3&#21069;&#31471;</text><rect fill="#FFFFFF" height="32.4775" rx="2.5" ry="2.5" style="stroke:#000000;stroke-width:0.5;" width="76" x="86" y="1191.876"/><text fill="#000000" font-family="Microsoft YaHei" font-size="14" lengthAdjust="spacing" textLength="62" x="93" y="1213.6895">Vue3&#21069;&#31471;</text><rect fill="#FFFFFF" height="50.9551" rx="2.5" ry="2.5" style="stroke:#000000;stroke-width:0.5;" width="86" x="300" y="31.5225"/><text fill="#000000" font-family="Microsoft YaHei" font-size="14" lengthAdjust="spacing" textLength="65" x="310.5" y="53.3359">API&#36335;&#30001;&#23618;</text><text fill="#000000" font-family="Microsoft YaHei" font-size="14" lengthAdjust="spacing" textLength="72" x="307" y="71.8135">/recognize</text><rect fill="#FFFFFF" height="50.9551" rx="2.5" ry="2.5" style="stroke:#000000;stroke-width:0.5;" width="86" x="300" y="1191.876"/><text fill="#000000" font-family="Microsoft YaHei" font-size="14" lengthAdjust="spacing" textLength="65" x="310.5" y="1213.6895">API&#36335;&#30001;&#23618;</text><text fill="#000000" font-family="Microsoft YaHei" font-size="14" lengthAdjust="spacing" textLength="72" x="307" y="1232.167">/recognize</text><rect fill="#FFFFFF" height="50.9551" rx="2.5" ry="2.5" style="stroke:#000000;stroke-width:0.5;" width="115" x="403.5" y="31.5225"/><text fill="#000000" font-family="Microsoft YaHei" font-size="14" lengthAdjust="spacing" textLength="101" x="410.5" y="53.3359">FoodController</text><text fill="#000000" font-family="Microsoft YaHei" font-size="14" lengthAdjust="spacing" textLength="42" x="440" y="71.8135">&#25511;&#21046;&#23618;</text><rect fill="#FFFFFF" height="50.9551" rx="2.5" ry="2.5" style="stroke:#000000;stroke-width:0.5;" width="115" x="403.5" y="1191.876"/><text fill="#000000" font-family="Microsoft YaHei" font-size="14" lengthAdjust="spacing" textLength="101" x="410.5" y="1213.6895">FoodController</text><text fill="#000000" font-family="Microsoft YaHei" font-size="14" lengthAdjust="spacing" textLength="42" x="440" y="1232.167">&#25511;&#21046;&#23618;</text><rect fill="#FFFFFF" height="50.9551" rx="2.5" ry="2.5" style="stroke:#000000;stroke-width:0.5;" width="177" x="566.5" y="31.5225"/><text fill="#000000" font-family="Microsoft YaHei" font-size="14" lengthAdjust="spacing" textLength="163" x="573.5" y="53.3359">FoodRecognitionService</text><text fill="#000000" font-family="Microsoft YaHei" font-size="14" lengthAdjust="spacing" textLength="70" x="620" y="71.8135">&#35782;&#21035;&#26381;&#21153;&#23618;</text><rect fill="#FFFFFF" height="50.9551" rx="2.5" ry="2.5" style="stroke:#000000;stroke-width:0.5;" width="177" x="566.5" y="1191.876"/><text fill="#000000" font-family="Microsoft YaHei" font-size="14" lengthAdjust="spacing" textLength="163" x="573.5" y="1213.6895">FoodRecognitionService</text><text fill="#000000" font-family="Microsoft YaHei" font-size="14" lengthAdjust="spacing" textLength="70" x="620" y="1232.167">&#35782;&#21035;&#26381;&#21153;&#23618;</text><rect fill="#FFFFFF" height="50.9551" rx="2.5" ry="2.5" style="stroke:#000000;stroke-width:0.5;" width="91" x="868.5" y="31.5225"/><text fill="#000000" font-family="Microsoft YaHei" font-size="14" lengthAdjust="spacing" textLength="77" x="875.5" y="53.3359">YoloService</text><text fill="#000000" font-family="Microsoft YaHei" font-size="14" lengthAdjust="spacing" textLength="70" x="879" y="71.8135">&#27169;&#22411;&#25512;&#29702;&#23618;</text><rect fill="#FFFFFF" height="50.9551" rx="2.5" ry="2.5" style="stroke:#000000;stroke-width:0.5;" width="91" x="868.5" y="1191.876"/><text fill="#000000" font-family="Microsoft YaHei" font-size="14" lengthAdjust="spacing" textLength="77" x="875.5" y="1213.6895">YoloService</text><text fill="#000000" font-family="Microsoft YaHei" font-size="14" lengthAdjust="spacing" textLength="70" x="879" y="1232.167">&#27169;&#22411;&#25512;&#29702;&#23618;</text><text fill="#000000" font-family="Microsoft YaHei" font-size="14" lengthAdjust="spacing" textLength="89" x="969.5" y="79.8135">MySQL&#25968;&#25454;&#24211;</text><path d="M999,29 C999,19 1017,19 1017,19 C1017,19 1035,19 1035,29 L1035,55 C1035,65 1017,65 1017,65 C1017,65 999,65 999,55 L999,29 " fill="#E2E2F0" style="stroke:#181818;stroke-width:1.5;"/><path d="M999,29 C999,39 1017,39 1017,39 C1017,39 1035,39 1035,29 " fill="none" style="stroke:#181818;stroke-width:1.5;"/><text fill="#000000" font-family="Microsoft YaHei" font-size="14" lengthAdjust="spacing" textLength="89" x="969.5" y="1206.6895">MySQL&#25968;&#25454;&#24211;</text><path d="M999,1220.3535 C999,1210.3535 1017,1210.3535 1017,1210.3535 C1017,1210.3535 1035,1210.3535 1035,1220.3535 L1035,1246.3535 C1035,1256.3535 1017,1256.3535 1017,1256.3535 C1017,1256.3535 999,1256.3535 999,1246.3535 L999,1220.3535 " fill="#E2E2F0" style="stroke:#181818;stroke-width:1.5;"/><path d="M999,1220.3535 C999,1230.3535 1017,1230.3535 1017,1230.3535 C1017,1230.3535 1035,1230.3535 1035,1220.3535 " fill="none" style="stroke:#181818;stroke-width:1.5;"/><rect fill="#E2E2F0" height="32.4775" style="stroke:#181818;stroke-width:0.5;" width="96" x="1078.5" y="46"/><rect fill="#E2E2F0" height="32.4775" style="stroke:#181818;stroke-width:0.5;" width="96" x="1074.5" y="50"/><text fill="#000000" font-family="Microsoft YaHei" font-size="14" lengthAdjust="spacing" textLength="82" x="1081.5" y="71.8135">uploads&#30446;&#24405;</text><rect fill="#E2E2F0" height="32.4775" style="stroke:#181818;stroke-width:0.5;" width="96" x="1078.5" y="1191.876"/><rect fill="#E2E2F0" height="32.4775" style="stroke:#181818;stroke-width:0.5;" width="96" x="1074.5" y="1195.876"/><text fill="#000000" font-family="Microsoft YaHei" font-size="14" lengthAdjust="spacing" textLength="82" x="1081.5" y="1217.6895">uploads&#30446;&#24405;</text><polygon fill="#000000" points="112,112.6353,122,116.6353,112,120.6353,116,116.6353" style="stroke:#000000;stroke-width:1.0;"/><line style="stroke:#000000;stroke-width:1.0;" x1="22" x2="118" y1="116.6353" y2="116.6353"/><text fill="#000000" font-family="Microsoft YaHei" font-size="13" lengthAdjust="spacing" textLength="78" x="29" y="111.2329">&#19978;&#20256;&#39135;&#29289;&#22270;&#29255;</text><polygon fill="#000000" points="331,160.9507,341,164.9507,331,168.9507,335,164.9507" style="stroke:#000000;stroke-width:1.0;"/><line style="stroke:#000000;stroke-width:1.0;" x1="124" x2="337" y1="164.9507" y2="164.9507"/><text fill="#000000" font-family="Microsoft YaHei" font-size="13" lengthAdjust="spacing" textLength="125" x="131" y="142.3906">multipart/form-data</text><text fill="#000000" font-family="Microsoft YaHei" font-size="13" lengthAdjust="spacing" textLength="61" x="131" y="159.5483">&#25658;&#24102;token</text><line style="stroke:#000000;stroke-width:1.0;" x1="343" x2="385" y1="196.1084" y2="196.1084"/><line style="stroke:#000000;stroke-width:1.0;" x1="385" x2="385" y1="196.1084" y2="209.1084"/><line style="stroke:#000000;stroke-width:1.0;" x1="344" x2="385" y1="209.1084" y2="209.1084"/><polygon fill="#000000" points="354,205.1084,344,209.1084,354,213.1084,350,209.1084" style="stroke:#000000;stroke-width:1.0;"/><text fill="#000000" font-family="Microsoft YaHei" font-size="13" lengthAdjust="spacing" textLength="104" x="350" y="190.7061">DependAuth&#35748;&#35777;</text><path d="M66,224.1084 L128,224.1084 L128,233.2661 L118,243.2661 L66,243.2661 L66,224.1084 " fill="#EEEEEE" style="stroke:#000000;stroke-width:1.5;"/><rect fill="none" height="920.6099" style="stroke:#000000;stroke-width:1.5;" width="1138.5" x="66" y="224.1084"/><text fill="#000000" font-family="Microsoft YaHei" font-size="13" font-weight="bold" lengthAdjust="spacing" textLength="17" x="81" y="238.8638">alt</text><text fill="#000000" font-family="Microsoft YaHei" font-size="11" font-weight="bold" lengthAdjust="spacing" textLength="41" x="143" y="237.7476">[&#26410;&#35748;&#35777;]</text><polygon fill="#000000" points="135,262.4238,125,266.4238,135,270.4238,131,266.4238" style="stroke:#000000;stroke-width:1.0;"/><line style="stroke:#000000;stroke-width:1.0;stroke-dasharray:2.0,2.0;" x1="129" x2="342" y1="266.4238" y2="266.4238"/><text fill="#000000" font-family="Microsoft YaHei" font-size="13" lengthAdjust="spacing" textLength="63" x="141" y="261.0215">401&#26410;&#35748;&#35777;</text><line style="stroke:#000000;stroke-width:1.0;stroke-dasharray:2.0,2.0;" x1="66" x2="1204.5" y1="275.4238" y2="275.4238"/><text fill="#000000" font-family="Microsoft YaHei" font-size="11" font-weight="bold" lengthAdjust="spacing" textLength="41" x="71" y="287.063">[&#24050;&#35748;&#35777;]</text><polygon fill="#000000" points="449,310.0996,459,314.0996,449,318.0996,453,314.0996" style="stroke:#000000;stroke-width:1.0;"/><line style="stroke:#000000;stroke-width:1.0;" x1="343" x2="455" y1="314.0996" y2="314.0996"/><text fill="#000000" font-family="Microsoft YaHei" font-size="13" lengthAdjust="spacing" textLength="78" x="350" y="308.6973">&#36716;&#21457;&#35782;&#21035;&#35831;&#27714;</text><polygon fill="#000000" points="643,341.2573,653,345.2573,643,349.2573,647,345.2573" style="stroke:#000000;stroke-width:1.0;"/><line style="stroke:#000000;stroke-width:1.0;" x1="461" x2="649" y1="345.2573" y2="345.2573"/><text fill="#000000" font-family="Microsoft YaHei" font-size="13" lengthAdjust="spacing" textLength="170" x="468" y="339.855">recognize_food(file, user_id)</text><path d="M556.5,360.2573 L653.5,360.2573 L653.5,369.415 L643.5,379.415 L556.5,379.415 L556.5,360.2573 " fill="#EEEEEE" style="stroke:#000000;stroke-width:1.5;"/><rect fill="none" height="63.3154" style="stroke:#000000;stroke-width:1.5;" width="362.5" x="556.5" y="360.2573"/><text fill="#000000" font-family="Microsoft YaHei" font-size="13" font-weight="bold" lengthAdjust="spacing" textLength="52" x="571.5" y="375.0127">&#22270;&#29255;&#26657;&#39564;</text><line style="stroke:#000000;stroke-width:1.0;" x1="655" x2="697" y1="402.5728" y2="402.5728"/><line style="stroke:#000000;stroke-width:1.0;" x1="697" x2="697" y1="402.5728" y2="415.5728"/><line style="stroke:#000000;stroke-width:1.0;" x1="656" x2="697" y1="415.5728" y2="415.5728"/><polygon fill="#000000" points="666,411.5728,656,415.5728,666,419.5728,662,415.5728" style="stroke:#000000;stroke-width:1.0;"/><text fill="#000000" font-family="Microsoft YaHei" font-size="13" lengthAdjust="spacing" textLength="245" x="662" y="397.1704">&#26657;&#39564;&#25193;&#23637;&#21517;&#12289;MIME&#12289;&#22823;&#23567;&#12289;&#20869;&#23481;&#12289;&#20998;&#36776;&#29575;</text><path d="M76,437.5728 L138,437.5728 L138,446.7305 L128,456.7305 L76,456.7305 L76,437.5728 " fill="#EEEEEE" style="stroke:#000000;stroke-width:1.5;"/><rect fill="none" height="700.1455" style="stroke:#000000;stroke-width:1.5;" width="1118.5" x="76" y="437.5728"/><text fill="#000000" font-family="Microsoft YaHei" font-size="13" font-weight="bold" lengthAdjust="spacing" textLength="17" x="91" y="452.3281">alt</text><text fill="#000000" font-family="Microsoft YaHei" font-size="11" font-weight="bold" lengthAdjust="spacing" textLength="52" x="153" y="451.2119">[&#22270;&#29255;&#38750;&#27861;]</text><polygon fill="#000000" points="472,475.8882,462,479.8882,472,483.8882,468,479.8882" style="stroke:#000000;stroke-width:1.0;"/><line style="stroke:#000000;stroke-width:1.0;stroke-dasharray:2.0,2.0;" x1="466" x2="654" y1="479.8882" y2="479.8882"/><text fill="#000000" font-family="Microsoft YaHei" font-size="13" lengthAdjust="spacing" textLength="78" x="478" y="474.4858">&#36820;&#22238;&#26657;&#39564;&#22833;&#36133;</text><polygon fill="#000000" points="354,507.0459,344,511.0459,354,515.0459,350,511.0459" style="stroke:#000000;stroke-width:1.0;"/><line style="stroke:#000000;stroke-width:1.0;stroke-dasharray:2.0,2.0;" x1="348" x2="460" y1="511.0459" y2="511.0459"/><text fill="#000000" font-family="Microsoft YaHei" font-size="13" lengthAdjust="spacing" textLength="52" x="360" y="505.6436">&#38169;&#35823;&#21709;&#24212;</text><polygon fill="#000000" points="135,538.2036,125,542.2036,135,546.2036,131,542.2036" style="stroke:#000000;stroke-width:1.0;"/><line style="stroke:#000000;stroke-width:1.0;stroke-dasharray:2.0,2.0;" x1="129" x2="342" y1="542.2036" y2="542.2036"/><text fill="#000000" font-family="Microsoft YaHei" font-size="13" lengthAdjust="spacing" textLength="89" x="141" y="536.8013">400&#22270;&#29255;&#19981;&#21512;&#27861;</text><line style="stroke:#000000;stroke-width:1.0;stroke-dasharray:2.0,2.0;" x1="76" x2="1194.5" y1="551.2036" y2="551.2036"/><text fill="#000000" font-family="Microsoft YaHei" font-size="11" font-weight="bold" lengthAdjust="spacing" textLength="52" x="81" y="562.8428">[&#26657;&#39564;&#36890;&#36807;]</text><path d="M556.5,573.7217 L666.5,573.7217 L666.5,582.8794 L656.5,592.8794 L556.5,592.8794 L556.5,573.7217 " fill="#EEEEEE" style="stroke:#000000;stroke-width:1.5;"/><rect fill="none" height="50.3154" style="stroke:#000000;stroke-width:1.5;" width="628" x="556.5" y="573.7217"/><text fill="#000000" font-family="Microsoft YaHei" font-size="13" font-weight="bold" lengthAdjust="spacing" textLength="65" x="571.5" y="588.4771">&#25991;&#20214;&#25345;&#20037;&#21270;</text><polygon fill="#000000" points="1112.5,612.0371,1122.5,616.0371,1112.5,620.0371,1116.5,616.0371" style="stroke:#000000;stroke-width:1.0;"/><line style="stroke:#000000;stroke-width:1.0;" x1="655" x2="1118.5" y1="616.0371" y2="616.0371"/><text fill="#000000" font-family="Microsoft YaHei" font-size="13" lengthAdjust="spacing" textLength="112" x="662" y="610.6348">UUID&#21629;&#21517;&#20445;&#23384;&#22270;&#29255;</text><path d="M556.5,638.0371 L653.5,638.0371 L653.5,647.1948 L643.5,657.1948 L556.5,657.1948 L556.5,638.0371 " fill="#EEEEEE" style="stroke:#000000;stroke-width:1.5;"/><rect fill="none" height="129.7886" style="stroke:#000000;stroke-width:1.5;" width="628" x="556.5" y="638.0371"/><text fill="#000000" font-family="Microsoft YaHei" font-size="13" font-weight="bold" lengthAdjust="spacing" textLength="52" x="571.5" y="652.7925">&#27169;&#22411;&#25512;&#29702;</text><polygon fill="#000000" points="902,693.5103,912,697.5103,902,701.5103,906,697.5103" style="stroke:#000000;stroke-width:1.0;"/><line style="stroke:#000000;stroke-width:1.0;" x1="655" x2="908" y1="697.5103" y2="697.5103"/><text fill="#000000" font-family="Microsoft YaHei" font-size="13" lengthAdjust="spacing" textLength="116" x="662" y="674.9502">asyncio.to_thread()</text><text fill="#000000" font-family="Microsoft YaHei" font-size="13" lengthAdjust="spacing" textLength="156" x="662" y="692.1079">predict_with_annotation()</text><polygon fill="#000000" points="1112.5,724.668,1122.5,728.668,1112.5,732.668,1116.5,728.668" style="stroke:#000000;stroke-width:1.0;"/><line style="stroke:#000000;stroke-width:1.0;" x1="914" x2="1118.5" y1="728.668" y2="728.668"/><text fill="#000000" font-family="Microsoft YaHei" font-size="13" lengthAdjust="spacing" textLength="78" x="921" y="723.2656">&#29983;&#25104;&#26631;&#27880;&#22270;&#29255;</text><polygon fill="#000000" points="666,755.8257,656,759.8257,666,763.8257,662,759.8257" style="stroke:#000000;stroke-width:1.0;"/><line style="stroke:#000000;stroke-width:1.0;stroke-dasharray:2.0,2.0;" x1="660" x2="913" y1="759.8257" y2="759.8257"/><text fill="#000000" font-family="Microsoft YaHei" font-size="13" lengthAdjust="spacing" textLength="202" x="672" y="754.4233">&#36820;&#22238;class_id&#12289;&#32622;&#20449;&#24230;&#12289;&#26631;&#27880;&#22270;&#36335;&#24452;</text><path d="M546.5,781.8257 L708.5,781.8257 L708.5,790.9834 L698.5,800.9834 L546.5,800.9834 L546.5,781.8257 " fill="#EEEEEE" style="stroke:#000000;stroke-width:1.5;"/><rect fill="none" height="255.4194" style="stroke:#000000;stroke-width:1.5;" width="538" x="546.5" y="781.8257"/><text fill="#000000" font-family="Microsoft YaHei" font-size="13" font-weight="bold" lengthAdjust="spacing" textLength="117" x="561.5" y="796.5811">&#32467;&#26524;&#22788;&#29702;&#19982;&#25968;&#25454;&#23384;&#20648;</text><path d="M556.5,807.9834 L632.5,807.9834 L632.5,817.1411 L622.5,827.1411 L556.5,827.1411 L556.5,807.9834 " fill="#EEEEEE" style="stroke:#000000;stroke-width:1.5;"/><rect fill="none" height="112.6309" style="stroke:#000000;stroke-width:1.5;" width="518" x="556.5" y="807.9834"/><text fill="#000000" font-family="Microsoft YaHei" font-size="13" font-weight="bold" lengthAdjust="spacing" textLength="31" x="571.5" y="822.7388">loop</text><text fill="#000000" font-family="Microsoft YaHei" font-size="11" font-weight="bold" lengthAdjust="spacing" textLength="74" x="647.5" y="821.6226">[&#36941;&#21382;&#39044;&#27979;&#32467;&#26524;]</text><polygon fill="#000000" points="1005,846.2988,1015,850.2988,1005,854.2988,1009,850.2988" style="stroke:#000000;stroke-width:1.0;"/><line style="stroke:#000000;stroke-width:1.0;" x1="655" x2="1011" y1="850.2988" y2="850.2988"/><text fill="#000000" font-family="Microsoft YaHei" font-size="13" lengthAdjust="spacing" textLength="113" x="662" y="844.8965">&#21305;&#37197;FoodCategory</text><polygon fill="#000000" points="1005,877.4565,1015,881.4565,1005,885.4565,1009,881.4565" style="stroke:#000000;stroke-width:1.0;"/><line style="stroke:#000000;stroke-width:1.0;" x1="655" x2="1011" y1="881.4565" y2="881.4565"/><text fill="#000000" font-family="Microsoft YaHei" font-size="13" lengthAdjust="spacing" textLength="82" x="662" y="876.0542">&#26597;&#35810;Nutrition</text><polygon fill="#000000" points="1005,908.6143,1015,912.6143,1005,916.6143,1009,912.6143" style="stroke:#000000;stroke-width:1.0;"/><line style="stroke:#000000;stroke-width:1.0;" x1="655" x2="1011" y1="912.6143" y2="912.6143"/><text fill="#000000" font-family="Microsoft YaHei" font-size="13" lengthAdjust="spacing" textLength="134" x="662" y="907.2119">&#21019;&#24314;RecognitionDetail</text><line style="stroke:#000000;stroke-width:1.0;" x1="655" x2="697" y1="967.9297" y2="967.9297"/><line style="stroke:#000000;stroke-width:1.0;" x1="697" x2="697" y1="967.9297" y2="980.9297"/><line style="stroke:#000000;stroke-width:1.0;" x1="656" x2="697" y1="980.9297" y2="980.9297"/><polygon fill="#000000" points="666,976.9297,656,980.9297,666,984.9297,662,980.9297" style="stroke:#000000;stroke-width:1.0;"/><text fill="#000000" font-family="Microsoft YaHei" font-size="13" lengthAdjust="spacing" textLength="78" x="662" y="945.3696">&#27719;&#24635;&#33829;&#20859;&#25104;&#20998;</text><text fill="#000000" font-family="Microsoft YaHei" font-size="13" lengthAdjust="spacing" textLength="78" x="662" y="962.5273">&#35745;&#31639;&#28909;&#37327;&#31561;&#32423;</text><polygon fill="#000000" points="1005,1025.2451,1015,1029.2451,1005,1033.2451,1009,1029.2451" style="stroke:#000000;stroke-width:1.0;"/><line style="stroke:#000000;stroke-width:1.0;" x1="655" x2="1011" y1="1029.2451" y2="1029.2451"/><text fill="#000000" font-family="Microsoft YaHei" font-size="13" lengthAdjust="spacing" textLength="131" x="662" y="1006.6851">&#21019;&#24314;NutritionAnalysis</text><text fill="#000000" font-family="Microsoft YaHei" font-size="13" lengthAdjust="spacing" textLength="116" x="662" y="1023.8428">RecognitionRecord</text><polygon fill="#000000" points="472,1063.4028,462,1067.4028,472,1071.4028,468,1067.4028" style="stroke:#000000;stroke-width:1.0;"/><line style="stroke:#000000;stroke-width:1.0;stroke-dasharray:2.0,2.0;" x1="466" x2="654" y1="1067.4028" y2="1067.4028"/><text fill="#000000" font-family="Microsoft YaHei" font-size="13" lengthAdjust="spacing" textLength="126" x="478" y="1062.0005">&#36820;&#22238;&#32467;&#26500;&#21270;JSON&#32467;&#26524;</text><polygon fill="#000000" points="354,1094.5605,344,1098.5605,354,1102.5605,350,1098.5605" style="stroke:#000000;stroke-width:1.0;"/><line style="stroke:#000000;stroke-width:1.0;stroke-dasharray:2.0,2.0;" x1="348" x2="460" y1="1098.5605" y2="1098.5605"/><text fill="#000000" font-family="Microsoft YaHei" font-size="13" lengthAdjust="spacing" textLength="78" x="360" y="1093.1582">&#23553;&#35013;&#25509;&#21475;&#21709;&#24212;</text><polygon fill="#000000" points="135,1125.7183,125,1129.7183,135,1133.7183,131,1129.7183" style="stroke:#000000;stroke-width:1.0;"/><line style="stroke:#000000;stroke-width:1.0;stroke-dasharray:2.0,2.0;" x1="129" x2="342" y1="1129.7183" y2="1129.7183"/><text fill="#000000" font-family="Microsoft YaHei" font-size="13" lengthAdjust="spacing" textLength="195" x="141" y="1124.3159">&#36820;&#22238;&#35782;&#21035;&#32467;&#26524;&#12289;&#33829;&#20859;&#20449;&#24687;&#21644;&#26631;&#27880;&#22270;</text><polygon fill="#000000" points="33,1170.876,23,1174.876,33,1178.876,29,1174.876" style="stroke:#000000;stroke-width:1.0;"/><line style="stroke:#000000;stroke-width:1.0;stroke-dasharray:2.0,2.0;" x1="27" x2="123" y1="1174.876" y2="1174.876"/><text fill="#000000" font-family="Microsoft YaHei" font-size="13" lengthAdjust="spacing" textLength="78" x="39" y="1169.4736">&#23637;&#31034;&#35782;&#21035;&#32467;&#26524;</text><!--SRC=[XLHTJnj757tVNx7o4qXDawfzwaCag1kL2cXQHAj8bj2mEyOhbXbtTrn4gqgOuWyIspZ5f1yGmC44DoasRje0Te4VKy_i-bzqPjTUTeq9Vl7ktdFFFNFklMFEQoWE3B0Wpm9bVix02QH-WdLio8inZK39zE9c3AXuKKDpSXJefZ-YmYX8wEG1HcGIB40vDA4f1ZPnbCYFm6TG2_bPuBS9Y1Ge_o39_3TY67ZHhJUhSm7Ent4j2iSr14UneKBZnkX0lGBn41X4KxGuG6GmXHymaEL7IG8AuQyXgrHbsPEG34nvseI65BzAbKDV9-27T2rllQuxW6_WR30-yd3CFgbRfGPjh4JGNGCgU0vftqC7pOD1z0ECkGX43Aphq8WWLZYasRSyrO5VHQvdVUKI4msZAMXyfoamWknwccPVi-qyVLpkSNI3GO97_DnU5gkMwSuJLgXQnNGlIm0a5H0m2qpHtAMfByVPvZ7BrsXpmq64HoL5I5E40bCE9U8w1gffRTNe-QRhdVj5aeI9yftxmYlvOxbz-hZzxrvdVzTQ-uDkNLXh6Ka4U9oxm-CBVAmqeVPk51iBTuG8hh7OfASl2Pw7I18m3ns6SOZKaGI9sRMANK_o9kf4Pjklkg_Em8a4h_v7zpwu2aC-rJ8z-QiVVT_dFS-np_-awqzTU-tw2MkiE50VXcTq3ULmh-apKTwfeQYcm_Va17TXHbE79ITLp5zSTi_FzigTLpddi_ZrU0AKBePnongRj9Z_RpavCJRnAV-ZbKDwl2uUqYbQEnCFsRHzKRKA6OUHk-DM5BwuzJhFTzYRpUlrhftwiaItTjpAjDAm_pxmSlmdzthHAVrcr-jq8q-R9G_PR_uzLqFxD4-BsPuCfmrkeSxox_PbnajtVMBFCktMMvPBjizIDFVCY_RPrPquNcTwUYnCdvvpfzgNp-dHhzr1w-LuflXA-BRW9dwn5PmSc4j8qV3x1C-Gc061EZGSGN43gff2PXOr4fi12642n6OC3GV878Q0Kgkqox95jfTXRwfzAgyI0gFWjaNHWMdoUU8DjyvhxSioRRxapnuHluJenUgxJcorDjZEDgsiyXEtJmlTzUPUhLG34dICut8dcQU5TEV5AlldYPiOmFGP5HxbEcdkh9FAEpSS870E6qktfh3T0xl-OZ913ETYkxr4TekschwhC0m9qFH0dZZv3Ho-zMfas7BBBXxGL8ktWwyGlqrhPQlsY_NJKIUpRXsjMSr3wNOjdlOH1FGbKpCZo2TFF1hguARSieQEwQjy-3-V-cAohmC3jv4U9-tz52iSqFNzT-wao-zURYundoFN2ZvMB5cdF-UyiVBk54UxSt6BSJOTfVnkiYfDFvFqFm00]--></g></svg>