<?xml version="1.0" encoding="us-ascii" standalone="no"?><svg xmlns="http://www.w3.org/2000/svg" xmlns:xlink="http://www.w3.org/1999/xlink" contentStyleType="text/css" height="999px" preserveAspectRatio="none" style="width:1269px;height:999px;background:#FFFFFF;" version="1.1" viewBox="0 0 1269 999" width="1269px" zoomAndPan="magnify"><defs/><g><!--cluster ?????--><g id="cluster_&#39033;&#30446;&#26681;&#30446;&#24405;"><rect fill="none" height="909" rx="2.5" ry="2.5" style="stroke:#181818;stroke-width:1.0;" width="1198" x="65.59" y="84.5"/><text fill="#000000" font-family="Microsoft YaHei" font-size="14" font-weight="bold" lengthAdjust="spacing" textLength="70" x="629.59" y="101.3135">&#39033;&#30446;&#26681;&#30446;&#24405;</text></g><!--cluster Web--><g id="cluster_Web"><rect fill="none" height="359" rx="2.5" ry="2.5" style="stroke:#181818;stroke-width:1.0;" width="404.86" x="204.73" y="137.5"/><text fill="#000000" font-family="Microsoft YaHei" font-size="14" font-weight="bold" lengthAdjust="spacing" textLength="36" x="389.16" y="154.3135">web/</text><text fill="#000000" font-family="Microsoft YaHei" font-size="14" font-weight="bold" lengthAdjust="spacing" textLength="92" x="361.16" y="172.791">Vue3&#21069;&#31471;&#24037;&#31243;</text></g><!--cluster App--><g id="cluster_App"><rect fill="none" height="260" rx="2.5" ry="2.5" style="stroke:#181818;stroke-width:1.0;" width="860.5" x="237.59" y="536.5"/><text fill="#000000" font-family="Microsoft YaHei" font-size="14" font-weight="bold" lengthAdjust="spacing" textLength="33" x="651.34" y="553.3135">app/</text><text fill="#000000" font-family="Microsoft YaHei" font-size="14" font-weight="bold" lengthAdjust="spacing" textLength="110" x="612.84" y="571.791">FastAPI&#21518;&#31471;&#24212;&#29992;</text></g><!--cluster Weights--><g id="cluster_Weights"><path d="M951.09,828.5 L1014.09,828.5 A3.75,3.75 0 0 1 1016.59,831 L1023.59,871.4551 L1107.09,871.4551 A2.5,2.5 0 0 1 1109.59,873.9551 L1109.59,939 A2.5,2.5 0 0 1 1107.09,941.5 L951.09,941.5 A2.5,2.5 0 0 1 948.59,939 L948.59,831 A2.5,2.5 0 0 1 951.09,828.5 " fill="none" style="stroke:#000000;stroke-width:1.5;"/><line style="stroke:#000000;stroke-width:1.5;" x1="948.59" x2="1023.59" y1="871.4551" y2="871.4551"/><text fill="#000000" font-family="Microsoft YaHei" font-size="14" font-weight="bold" lengthAdjust="spacing" textLength="62" x="952.59" y="845.3135">weights/</text><text fill="#000000" font-family="Microsoft YaHei" font-size="14" font-weight="bold" lengthAdjust="spacing" textLength="56" x="955.59" y="863.791">&#27169;&#22411;&#26435;&#37325;</text></g><!--entity Deploy--><g id="elem_Deploy"><path d="M84.09,751 L125.09,751 A3.75,3.75 0 0 1 127.59,753.5 L134.59,772 L165.09,772 A2.5,2.5 0 0 1 167.59,774.5 L167.59,823.4551 A2.5,2.5 0 0 1 165.09,825.9551 L84.09,825.9551 A2.5,2.5 0 0 1 81.59,823.4551 L81.59,753.5 A2.5,2.5 0 0 1 84.09,751 " fill="#F1F1F1" style="stroke:#181818;stroke-width:0.5;"/><line style="stroke:#181818;stroke-width:0.5;" x1="81.59" x2="134.59" y1="772" y2="772"/><text fill="#000000" font-family="Microsoft YaHei" font-size="14" lengthAdjust="spacing" textLength="52" x="91.59" y="793.8135">deploy/</text><text fill="#000000" font-family="Microsoft YaHei" font-size="14" lengthAdjust="spacing" textLength="56" x="91.59" y="812.291">&#37096;&#32626;&#37197;&#32622;</text></g><!--entity DB--><g id="elem_DB"><path d="M1138.59,831 C1138.59,821 1193.09,821 1193.09,821 C1193.09,821 1247.59,821 1247.59,831 L1247.59,858.4775 C1247.59,868.4775 1193.09,868.4775 1193.09,868.4775 C1193.09,868.4775 1138.59,868.4775 1138.59,858.4775 L1138.59,831 " fill="#F1F1F1" style="stroke:#181818;stroke-width:0.5;"/><path d="M1138.59,831 C1138.59,841 1193.09,841 1193.09,841 C1193.09,841 1247.59,841 1247.59,831 " fill="none" style="stroke:#181818;stroke-width:0.5;"/><text fill="#000000" font-family="Microsoft YaHei" font-size="14" lengthAdjust="spacing" textLength="89" x="1148.59" y="859.8135">MySQL&#25968;&#25454;&#24211;</text></g><!--entity WebAPI--><g id="elem_WebAPI"><rect fill="#F1F1F1" height="56.9551" rx="2.5" ry="2.5" style="stroke:#181818;stroke-width:0.5;" width="76" x="304.09" y="415"/><text fill="#000000" font-family="Microsoft YaHei" font-size="14" lengthAdjust="spacing" textLength="27" x="314.09" y="439.8135">api/</text><text fill="#000000" font-family="Microsoft YaHei" font-size="14" lengthAdjust="spacing" textLength="56" x="314.09" y="458.291">&#25509;&#21475;&#35843;&#29992;</text></g><!--entity Router--><g id="elem_Router"><rect fill="#F1F1F1" height="56.9551" rx="2.5" ry="2.5" style="stroke:#181818;stroke-width:0.5;" width="76" x="304.09" y="201"/><text fill="#000000" font-family="Microsoft YaHei" font-size="14" lengthAdjust="spacing" textLength="47" x="314.09" y="225.8135">router/</text><text fill="#000000" font-family="Microsoft YaHei" font-size="14" lengthAdjust="spacing" textLength="56" x="314.09" y="244.291">&#36335;&#30001;&#31649;&#29702;</text></g><!--entity Store--><g id="elem_Store"><rect fill="#F1F1F1" height="56.9551" rx="2.5" ry="2.5" style="stroke:#181818;stroke-width:0.5;" width="76" x="488.59" y="201"/><text fill="#000000" font-family="Microsoft YaHei" font-size="14" lengthAdjust="spacing" textLength="39" x="498.59" y="225.8135">store/</text><text fill="#000000" font-family="Microsoft YaHei" font-size="14" lengthAdjust="spacing" textLength="56" x="498.59" y="244.291">&#29366;&#24577;&#31649;&#29702;</text></g><!--entity Views--><g id="elem_Views"><rect fill="#F1F1F1" height="56.9551" rx="2.5" ry="2.5" style="stroke:#181818;stroke-width:0.5;" width="76" x="304.09" y="308"/><text fill="#000000" font-family="Microsoft YaHei" font-size="14" lengthAdjust="spacing" textLength="42" x="314.09" y="332.8135">views/</text><text fill="#000000" font-family="Microsoft YaHei" font-size="14" lengthAdjust="spacing" textLength="56" x="314.09" y="351.291">&#39029;&#38754;&#27169;&#22359;</text></g><!--entity Components--><g id="elem_Components"><rect fill="#F1F1F1" height="56.9551" rx="2.5" ry="2.5" style="stroke:#181818;stroke-width:0.5;" width="118" x="467.59" y="308"/><text fill="#000000" font-family="Microsoft YaHei" font-size="14" lengthAdjust="spacing" textLength="90" x="477.59" y="332.8135">components/</text><text fill="#000000" font-family="Microsoft YaHei" font-size="14" lengthAdjust="spacing" textLength="98" x="477.59" y="351.291">&#36890;&#29992;&#19982;&#19994;&#21153;&#32452;&#20214;</text></g><!--entity API--><g id="elem_API"><rect fill="#F1F1F1" height="56.9551" rx="2.5" ry="2.5" style="stroke:#181818;stroke-width:0.5;" width="90" x="481.59" y="607"/><text fill="#000000" font-family="Microsoft YaHei" font-size="14" lengthAdjust="spacing" textLength="48" x="491.59" y="631.8135">api/v1/</text><text fill="#000000" font-family="Microsoft YaHei" font-size="14" lengthAdjust="spacing" textLength="70" x="491.59" y="650.291">&#25509;&#21475;&#36335;&#30001;&#23618;</text></g><!--entity Controller--><g id="elem_Controller"><rect fill="#F1F1F1" height="56.9551" rx="2.5" ry="2.5" style="stroke:#181818;stroke-width:0.5;" width="97" x="633.59" y="707"/><text fill="#000000" font-family="Microsoft YaHei" font-size="14" lengthAdjust="spacing" textLength="77" x="643.59" y="731.8135">controllers/</text><text fill="#000000" font-family="Microsoft YaHei" font-size="14" lengthAdjust="spacing" textLength="70" x="643.59" y="750.291">&#19994;&#21153;&#25511;&#21046;&#23618;</text></g><!--entity Service--><g id="elem_Service"><rect fill="#F1F1F1" height="75.4326" rx="2.5" ry="2.5" style="stroke:#181818;stroke-width:0.5;" width="144" x="775.59" y="689"/><text fill="#000000" font-family="Microsoft YaHei" font-size="14" lengthAdjust="spacing" textLength="57" x="785.59" y="713.8135">services/</text><text fill="#000000" font-family="Microsoft YaHei" font-size="14" lengthAdjust="spacing" textLength="70" x="785.59" y="732.291">&#19994;&#21153;&#26381;&#21153;&#23618;</text><text fill="#000000" font-family="Microsoft YaHei" font-size="14" lengthAdjust="spacing" textLength="124" x="785.59" y="750.7686">&#27169;&#22411;&#25512;&#29702;/&#35782;&#21035;/&#25512;&#33616;</text></g><!--entity Model--><g id="elem_Model"><rect fill="#F1F1F1" height="56.9551" rx="2.5" ry="2.5" style="stroke:#181818;stroke-width:0.5;" width="90" x="984.09" y="703"/><text fill="#000000" font-family="Microsoft YaHei" font-size="14" lengthAdjust="spacing" textLength="55" x="994.09" y="727.8135">models/</text><text fill="#000000" font-family="Microsoft YaHei" font-size="14" lengthAdjust="spacing" textLength="70" x="994.09" y="746.291">&#25968;&#25454;&#27169;&#22411;&#23618;</text></g><!--entity Schema--><g id="elem_Schema"><rect fill="#F1F1F1" height="56.9551" rx="2.5" ry="2.5" style="stroke:#181818;stroke-width:0.5;" width="90" x="637.09" y="600"/><text fill="#000000" font-family="Microsoft YaHei" font-size="14" lengthAdjust="spacing" textLength="63" x="647.09" y="624.8135">schemas/</text><text fill="#000000" font-family="Microsoft YaHei" font-size="14" lengthAdjust="spacing" textLength="70" x="647.09" y="643.291">&#25968;&#25454;&#26657;&#39564;&#23618;</text></g><!--entity Core--><g id="elem_Core"><rect fill="#F1F1F1" height="75.4326" rx="2.5" ry="2.5" style="stroke:#181818;stroke-width:0.5;" width="161" x="261.59" y="641"/><text fill="#000000" font-family="Microsoft YaHei" font-size="14" lengthAdjust="spacing" textLength="35" x="271.59" y="665.8135">core/</text><text fill="#000000" font-family="Microsoft YaHei" font-size="14" lengthAdjust="spacing" textLength="56" x="271.59" y="684.291">&#26680;&#24515;&#27169;&#22359;</text><text fill="#000000" font-family="Microsoft YaHei" font-size="14" lengthAdjust="spacing" textLength="141" x="271.59" y="702.7686">&#35748;&#35777;/&#26435;&#38480;/&#24322;&#24120;/CRUD</text></g><!--entity Pt--><g id="elem_Pt"><rect fill="#F1F1F1" height="41.4775" rx="2.5" ry="2.5" style="stroke:#181818;stroke-width:0.5;" width="129" x="964.59" y="884"/><polygon fill="#F1F1F1" points="1076.59,889,1076.59,903,1088.59,903,1088.59,895,1082.59,889,1076.59,889" style="stroke:#181818;stroke-width:0.5;"/><line style="stroke:#181818;stroke-width:0.5;" x1="1082.59" x2="1082.59" y1="889" y2="895"/><line style="stroke:#181818;stroke-width:0.5;" x1="1088.59" x2="1082.59" y1="895" y2="895"/><text fill="#000000" font-family="Microsoft YaHei" font-size="14" lengthAdjust="spacing" textLength="45" x="974.59" y="911.8135">best.pt</text><text fill="#000000" font-family="Microsoft YaHei" font-size="14" lengthAdjust="spacing" textLength="4" x="1019.59" y="911.8135">&#160;</text><text fill="#000000" font-family="Microsoft YaHei" font-size="14" lengthAdjust="spacing" textLength="6" x="1023.59" y="911.8135">/</text><text fill="#000000" font-family="Microsoft YaHei" font-size="14" lengthAdjust="spacing" textLength="4" x="1029.59" y="911.8135">&#160;</text><text fill="#000000" font-family="Microsoft YaHei" font-size="14" lengthAdjust="spacing" textLength="40" x="1033.59" y="911.8135">last.pt</text></g><!--entity User--><g id="elem_User"><ellipse cx="22.59" cy="14" fill="#F1F1F1" rx="8" ry="8" style="stroke:#181818;stroke-width:0.5;"/><path d="M22.59,22 L22.59,49 M9.59,30 L35.59,30 M22.59,49 L9.59,64 M22.59,49 L35.59,64 " fill="none" style="stroke:#181818;stroke-width:0.5;"/><text fill="#000000" font-family="Microsoft YaHei" font-size="14" lengthAdjust="spacing" textLength="28" x="8.59" y="80.3135">&#29992;&#25143;</text></g><!--entity Browser--><g id="elem_Browser"><polygon fill="#F1F1F1" points="83.59,30.5,93.59,20.5,165.59,20.5,165.59,58.9775,155.59,68.9775,83.59,68.9775,83.59,30.5" style="stroke:#181818;stroke-width:0.5;"/><line style="stroke:#181818;stroke-width:0.5;" x1="155.59" x2="165.59" y1="30.5" y2="20.5"/><line style="stroke:#181818;stroke-width:0.5;" x1="83.59" x2="155.59" y1="30.5" y2="30.5"/><line style="stroke:#181818;stroke-width:0.5;" x1="155.59" x2="155.59" y1="30.5" y2="68.9775"/><text fill="#000000" font-family="Microsoft YaHei" font-size="14" lengthAdjust="spacing" textLength="42" x="98.59" y="55.3135">&#27983;&#35272;&#22120;</text></g><!--link User to Browser--><g id="link_User_Browser"><path d="M36.77,44.5 C48.81,44.5 60.72,44.5 77.23,44.5 " fill="none" id="User-to-Browser" style="stroke:#181818;stroke-width:1.0;"/><polygon fill="#181818" points="83.23,44.5,74.23,40.5,78.23,44.5,74.23,48.5,83.23,44.5" style="stroke:#181818;stroke-width:1.0;"/><text fill="#000000" font-family="Microsoft YaHei" font-size="13" lengthAdjust="spacing" textLength="52" x="7" y="59.2554">&#35775;&#38382;&#31995;&#32479;</text></g><!--link Browser to Web--><g id="link_Browser_Web"><path d="M165.7,44.5 C189.02,44.5 213.59,44.5 213.59,44.5 C213.59,44.5 213.59,69.0494 213.59,105.9694 C213.59,115.1994 213.59,119.2025 213.59,129.7886 " fill="none" id="Browser-to-Web" style="stroke:#181818;stroke-width:1.0;"/><polygon fill="#181818" points="213.59,135.7886,217.59,126.7886,213.59,130.7886,209.59,126.7886,213.59,135.7886" style="stroke:#181818;stroke-width:1.0;"/><text fill="#000000" font-family="Microsoft YaHei" font-size="13" lengthAdjust="spacing" textLength="52" x="160.59" y="234.7754">&#39029;&#38754;&#20132;&#20114;</text></g><!--link Web to WebAPI--><g id="link_Web_WebAPI"><path d="M213.46,443.5 C218.22,443.5 261.87,443.5 298.06,443.5 " fill="none" id="Web-to-WebAPI" style="stroke:#181818;stroke-width:1.0;"/><polygon fill="#181818" points="304.06,443.5,295.06,439.5,299.06,443.5,295.06,447.5,304.06,443.5" style="stroke:#181818;stroke-width:1.0;"/></g><!--link Views to Components--><g id="link_Views_Components"><path d="M380.32,336.5 C405.44,336.5 432.81,336.5 461.33,336.5 " fill="none" id="Views-to-Components" style="stroke:#181818;stroke-width:1.0;"/><polygon fill="#181818" points="467.33,336.5,458.33,332.5,462.33,336.5,458.33,340.5,467.33,336.5" style="stroke:#181818;stroke-width:1.0;"/></g><!--link Router to Store--><g id="link_Router_Store"><path d="M380.32,229.5 C411.98,229.5 450.76,229.5 482.41,229.5 " fill="none" id="Router-to-Store" style="stroke:#181818;stroke-width:1.0;"/><polygon fill="#181818" points="488.41,229.5,479.41,225.5,483.41,229.5,479.41,233.5,488.41,229.5" style="stroke:#181818;stroke-width:1.0;"/></g><!--link WebAPI to API--><g id="link_WebAPI_API"><path d="M342.59,472.1 C342.59,523 342.59,624 342.59,624 C342.59,624 421.1,624 475.58,624 " fill="none" id="WebAPI-to-API" style="stroke:#181818;stroke-width:1.0;"/><polygon fill="#181818" points="481.58,624,472.58,620,476.58,624,472.58,628,481.58,624" style="stroke:#181818;stroke-width:1.0;"/><text fill="#000000" font-family="Microsoft YaHei" font-size="13" lengthAdjust="spacing" textLength="58" x="283.59" y="632.2954">HTTP&#35831;&#27714;</text></g><!--link API to Schema--><g id="link_API_Schema"><path d="M571.98,632 C592.42,632 610.49,632 630.91,632 " fill="none" id="API-to-Schema" style="stroke:#181818;stroke-width:1.0;"/><polygon fill="#181818" points="636.91,632,627.91,628,631.91,632,627.91,636,636.91,632" style="stroke:#181818;stroke-width:1.0;"/><text fill="#000000" font-family="Microsoft YaHei" font-size="13" lengthAdjust="spacing" textLength="52" x="551.44" y="646.7554">&#21442;&#25968;&#26657;&#39564;</text></g><!--link API to Controller--><g id="link_API_Controller"><path d="M526.59,664.09 C526.59,685.1 526.59,710 526.59,710 C526.59,710 581.71,710 627.31,710 " fill="none" id="API-to-Controller" style="stroke:#181818;stroke-width:1.0;"/><polygon fill="#181818" points="633.31,710,624.31,706,628.31,710,624.31,714,633.31,710" style="stroke:#181818;stroke-width:1.0;"/><text fill="#000000" font-family="Microsoft YaHei" font-size="13" lengthAdjust="spacing" textLength="52" x="558" y="724.7554">&#35831;&#27714;&#36716;&#21457;</text></g><!--link Controller to Service--><g id="link_Controller_Service"><path d="M730.85,735.5 C744.86,735.5 754.46,735.5 769.56,735.5 " fill="none" id="Controller-to-Service" style="stroke:#181818;stroke-width:1.0;"/><polygon fill="#181818" points="775.56,735.5,766.56,731.5,770.56,735.5,766.56,739.5,775.56,735.5" style="stroke:#181818;stroke-width:1.0;"/><text fill="#000000" font-family="Microsoft YaHei" font-size="13" lengthAdjust="spacing" textLength="52" x="700.2" y="750.2554">&#19994;&#21153;&#35843;&#24230;</text></g><!--link Service to Pt--><g id="link_Service_Pt"><path d="M919.62,741 C948.29,741 974.59,741 974.59,741 C974.59,741 974.59,833.8 974.59,877.79 " fill="none" id="Service-to-Pt" style="stroke:#181818;stroke-width:1.0;"/><polygon fill="#181818" points="974.59,883.79,978.59,874.79,974.59,878.79,970.59,874.79,974.59,883.79" style="stroke:#181818;stroke-width:1.0;"/><text fill="#000000" font-family="Microsoft YaHei" font-size="13" lengthAdjust="spacing" textLength="112" x="861.59" y="799.6654">&#21152;&#36733;YOLOv11&#26435;&#37325;</text></g><!--link Service to Model--><g id="link_Service_Model"><path d="M919.84,722 C941.49,722 958.61,722 977.98,722 " fill="none" id="Service-to-Model" style="stroke:#181818;stroke-width:1.0;"/><polygon fill="#181818" points="983.98,722,974.98,718,978.98,722,974.98,726,983.98,722" style="stroke:#181818;stroke-width:1.0;"/><text fill="#000000" font-family="Microsoft YaHei" font-size="13" lengthAdjust="spacing" textLength="52" x="898.91" y="736.7554">&#25968;&#25454;&#35835;&#20889;</text></g><!--link Model to DB--><g id="link_Model_DB"><path d="M1029.59,760.01 C1029.59,792.15 1029.59,840 1029.59,840 C1029.59,840 1084.69,840 1132.19,840 " fill="none" id="Model-to-DB" style="stroke:#181818;stroke-width:1.0;"/><polygon fill="#181818" points="1138.19,840,1129.19,836,1133.19,840,1129.19,844,1138.19,840" style="stroke:#181818;stroke-width:1.0;"/><text fill="#000000" font-family="Microsoft YaHei" font-size="13" lengthAdjust="spacing" textLength="58" x="1044.89" y="835.7554">ORM&#26144;&#23556;</text></g><!--link Core to API--><g id="link_Core_API"><path d="M422.74,652.5 C442.91,652.5 457.83,652.5 475.56,652.5 " fill="none" id="Core-to-API" style="stroke:#181818;stroke-width:1.0;"/><polygon fill="#181818" points="481.56,652.5,472.56,648.5,476.56,652.5,472.56,656.5,481.56,652.5" style="stroke:#181818;stroke-width:1.0;"/><text fill="#000000" font-family="Microsoft YaHei" font-size="13" lengthAdjust="spacing" textLength="91" x="453.15" y="667.2554">&#35748;&#35777;&#19982;&#26435;&#38480;&#25511;&#21046;</text></g><!--link Core to Controller--><g id="link_Core_Controller"><path d="M422.66,713 C488.06,713 572.13,713 627.11,713 " fill="none" id="Core-to-Controller" style="stroke:#181818;stroke-width:1.0;"/><polygon fill="#181818" points="633.11,713,624.11,709,628.11,713,624.11,717,633.11,713" style="stroke:#181818;stroke-width:1.0;"/><text fill="#000000" font-family="Microsoft YaHei" font-size="13" lengthAdjust="spacing" textLength="128" x="398.89" y="727.7554">&#24322;&#24120;&#22788;&#29702;&#19982;&#36890;&#29992;CRUD</text></g><!--link Deploy to Web--><g id="link_Deploy_Web"><path d="M167.78,778.5 C190.46,778.5 213.59,757.5 213.59,757.5 C213.59,757.5 213.59,680.2225 213.59,602.3413 C213.59,582.8709 213.59,563.3629 213.59,545.0151 C213.59,535.8413 213.59,526.9575 213.59,518.5135 C213.59,514.2915 213.59,510.1795 213.59,506.1961 C213.59,504.2044 213.59,502.2449 213.59,500.3199 C213.59,499.3574 213.59,504.4035 213.59,503.4586 " fill="none" id="Deploy-to-Web" style="stroke:#181818;stroke-width:1.0;stroke-dasharray:7.0,7.0;"/><polygon fill="#181818" points="213.59,497.4586,209.59,506.4586,213.59,502.4586,217.59,506.4586,213.59,497.4586" style="stroke:#181818;stroke-width:1.0;"/><text fill="#000000" font-family="Microsoft YaHei" font-size="13" lengthAdjust="spacing" textLength="52" x="160.59" y="638.1854">&#21069;&#31471;&#37096;&#32626;</text></g><!--link Deploy to App--><g id="link_Deploy_App"><path d="M167.82,788.5 C182.935,788.5 200.7413,788.5 219.098,788.5 C223.6871,788.5 228.3107,788.5 232.9353,788.5 C234.0914,788.5 235.2476,788.5 236.4033,788.5 C236.6923,788.5 230.9812,788.5 231.27,788.5 " fill="none" id="Deploy-to-App" style="stroke:#181818;stroke-width:1.0;stroke-dasharray:7.0,7.0;"/><polygon fill="#181818" points="237.27,788.5,228.27,784.5,232.27,788.5,228.27,792.5,237.27,788.5" style="stroke:#181818;stroke-width:1.0;"/><text fill="#000000" font-family="Microsoft YaHei" font-size="13" lengthAdjust="spacing" textLength="52" x="201.6" y="803.2554">&#21518;&#31471;&#37096;&#32626;</text></g><!--link Deploy to DB--><g id="link_Deploy_DB"><path d="M124.59,826.22 C124.59,840.78 124.59,854 124.59,854 C124.59,854 913.99,854 1132.26,854 " fill="none" id="Deploy-to-DB" style="stroke:#181818;stroke-width:1.0;stroke-dasharray:7.0,7.0;"/><polygon fill="#181818" points="1138.26,854,1129.26,850,1133.26,854,1129.26,858,1138.26,854" style="stroke:#181818;stroke-width:1.0;"/><text fill="#000000" font-family="Microsoft YaHei" font-size="13" lengthAdjust="spacing" textLength="65" x="551.54" y="868.7554">&#25968;&#25454;&#24211;&#37096;&#32626;</text></g><!--SRC=[TLHTJnj757sVNp7Qz-2WDdtWeL80HQaK2eLyA59VnjwnlMAziveTi51LAG5AAQaDRObIaj3QBMcifhAXLS2rQ-NFU7RN_w9tPhncaspsORs-vvuxz-FSSMbHOC4mTqfbWMs7qu9mc8TGiEfuFk6aWlEai5hYRCspvvZBEAwM7K5JU50cDgiwNWaNYHka4PiMoPehRZ1FV4ug55iBJe6pWC6HzybDwbWfNnzE8IMw8ZPSYbKMn2kvwM05Ll6PHptnOHVNyQZOy2bcN9HP2l2OJGFgusjNKqPEl5Lb_FXQobZbnB_dsAACfp-vYX0f2AZOYWvRuUw5XKc0xmIK8nKFM-7h_VZbhZngQM2Miwh2qBWIR8sQ_qRFsc53lUNWiOM_GWZ3Ct6eqdpkI-_k6lr8VbUBNdNanOkezKX7kqVpu8x7pwHsR17V0KvOVo7tVuzFjo2pnF_wqcTP19YSe1muyKKdEZoBsiteO4TpbZMInGcWQWgKQEyyVF0mHLbHG1PZtQ7L01YZvklHyMzXgocFdsZ6NGLaCIQVclRWALGoxDQ7tQTohndrjuVzSysVcxZf85-_qqBY-q2_GG81vSk3kkfYxp3fodNV_t0NrwSl6wbR8yys3IkxaGMGCMUkIxdAs2GQrb_AtVE4E3Vno6mgvUjEWQR8pslm1ZAa0GtxvL5ORq6ZSt5dH-w-oi6_k7PWscweML4h84LNnGmVduQrjWcK9BIWmCnS2cLQ8IbQepdwy_k4jgBHx1veNOIDhdopPQOCmcgVn9s7kV1uQtHqa9F_RSfkDpUtV6T-t9InOiQZApBNfbo9NrqvEWLJFD2_hOt5hA7Kw0WNJX6M4Ljv6eWfN-0STed-qembaNM4JNsNRIXvRRMYmT-ZRshHeAtzvpLYl6qYI9u4wdhQMFdYbcc8xFra76SH15LBZwzS-JHPSZo3u_QRqPDsz4y_wl-A4hDoKPixWyqU37idmzwF22dR65FYqZkX3IbrcstKLhDbnbaRrEyClddxzbBSkGZFDX5A43Cg0EN-fifSpt62NWfIPQofyU0lkVy3IY4wZ14OU1bfmiqYUt-WnAnSbeGwPQyH3mRt5syjhazFcuczvQG51twcYN6dBtUEa34gU7uMiCNbXV3dXZpTHaXf8rMW4HBS0aPAPhakdTwgniXCdcp3nW33N21AT0YPuUAfgMGOvdOr8aYZwde0LDyQxwCwsOaQnlZ_]--></g></svg>